<svg width="21" height="24" viewBox="0 0 21 24" fill="none" xmlns="http://www.w3.org/2000/svg">
<path fill-rule="evenodd" clip-rule="evenodd" d="M14.7132 0.0703125L14.7159 0.0704404C16.2865 0.144891 17.7683 0.82123 18.8535 1.95915C19.9435 3.10202 20.5442 4.86845 20.5442 6.74562C20.5442 8.72066 19.943 10.3897 18.8535 11.5321C17.7934 12.6437 16.3548 13.3149 14.8245 13.4147V23.1271L14.8245 23.1283C14.8223 23.2363 14.7988 23.3432 14.7553 23.4424C14.7118 23.5411 14.6492 23.631 14.571 23.7059C14.4928 23.781 14.4006 23.8397 14.2996 23.8789C14.1987 23.9182 14.0911 23.9373 13.9829 23.9348C13.8692 23.9326 13.7571 23.9066 13.6542 23.8582C13.552 23.81 13.4607 23.741 13.3868 23.6552L2.60698 12.1206C1.50291 11.0331 0.913753 9.87989 0.596504 8.33181C0.457031 7.65122 0.457031 6.93067 0.457031 6.22683C0.596504 4.58466 1.06183 3.13807 2.14314 1.99369C3.22445 0.84928 4.70219 0.161315 6.27401 0.0705024L6.27729 0.0703125H14.7132ZM14.4953 10.5941C15.3109 10.5386 16.0744 10.1729 16.6289 9.57188C17.1764 8.97837 17.4762 7.92761 17.4762 6.79362C17.4762 5.66338 17.1325 4.62132 16.5685 4.04255C15.9974 3.45666 15.2236 3.11189 14.4061 3.07914H6.49746C5.69475 3.16303 4.97947 3.45418 4.4241 4.05249C3.83413 4.68807 3.52295 5.64786 3.52295 6.82865C3.52295 8.00944 3.76628 9.17491 5.21755 10.6262L5.3075 10.7201L11.9679 17.8227V12.0974L11.9679 12.0968C11.9722 11.6996 12.1319 11.3199 12.4127 11.039C12.6936 10.7581 13.0733 10.5985 13.4705 10.5942L13.4711 10.5941H14.4953Z" fill="white"/>
</svg>
