<svg width="42" height="42" viewBox="0 0 42 42" fill="none" xmlns="http://www.w3.org/2000/svg">
<mask id="path-1-inside-1_0_209" fill="white">
<path d="M42 21C42 32.598 32.598 42 21 42C9.40202 42 0 32.598 0 21C0 9.40202 9.40202 0 21 0C32.598 0 42 9.40202 42 21ZM4.47399 21C4.47399 30.1271 11.8729 37.526 21 37.526C30.1271 37.526 37.526 30.1271 37.526 21C37.526 11.8729 30.1271 4.47399 21 4.47399C11.8729 4.47399 4.47399 11.8729 4.47399 21Z"/>
</mask>
<path d="M42 21C42 32.598 32.598 42 21 42C9.40202 42 0 32.598 0 21C0 9.40202 9.40202 0 21 0C32.598 0 42 9.40202 42 21ZM4.47399 21C4.47399 30.1271 11.8729 37.526 21 37.526C30.1271 37.526 37.526 30.1271 37.526 21C37.526 11.8729 30.1271 4.47399 21 4.47399C11.8729 4.47399 4.47399 11.8729 4.47399 21Z" stroke="#D1D6D9" stroke-width="10" mask="url(#path-1-inside-1_0_209)"/>
</svg>
