<svg width="20" height="11" viewBox="0 0 20 11" fill="none" xmlns="http://www.w3.org/2000/svg">
<mask id="path-1-inside-1_0_210" fill="white">
<path d="M0.0342815 2.64111C-0.186622 1.35994 0.673622 0.128973 1.97102 0.0455407C5.19746 -0.161944 8.4403 0.340593 11.4674 1.52945C14.4945 2.71831 17.2126 4.55687 19.4356 6.90454C20.3294 7.84857 20.1221 9.33595 19.0884 10.1244C18.0547 10.9128 16.5876 10.7003 15.6669 9.78241C13.9853 8.10603 11.9719 6.78569 9.74636 5.91161C7.52078 5.03754 5.14701 4.6349 2.77402 4.71888C1.47475 4.76487 0.255185 3.92229 0.0342815 2.64111Z"/>
</mask>
<path d="M0.0342815 2.64111C-0.186622 1.35994 0.673622 0.128973 1.97102 0.0455407C5.19746 -0.161944 8.4403 0.340593 11.4674 1.52945C14.4945 2.71831 17.2126 4.55687 19.4356 6.90454C20.3294 7.84857 20.1221 9.33595 19.0884 10.1244C18.0547 10.9128 16.5876 10.7003 15.6669 9.78241C13.9853 8.10603 11.9719 6.78569 9.74636 5.91161C7.52078 5.03754 5.14701 4.6349 2.77402 4.71888C1.47475 4.76487 0.255185 3.92229 0.0342815 2.64111Z" fill="white" stroke="#F9D649" stroke-width="10" mask="url(#path-1-inside-1_0_210)"/>
</svg>
