<svg width="42" height="42" viewBox="0 0 42 42" fill="none" xmlns="http://www.w3.org/2000/svg">
<path d="M33.3918 19.6313C32.6318 17.8366 31.5269 16.2257 30.1462 14.8995L29.0069 13.8027C28.9682 13.7665 28.9217 13.7408 28.8713 13.7279C28.821 13.715 28.7683 13.7152 28.7181 13.7286C28.6678 13.742 28.6215 13.7681 28.5831 13.8047C28.5447 13.8412 28.5155 13.8871 28.4979 13.9383L27.989 15.4704C27.6719 16.4316 27.0885 17.4133 26.2624 18.3785C26.2076 18.4401 26.145 18.4566 26.1019 18.4607C26.0588 18.4648 25.9923 18.4566 25.9335 18.3991C25.8787 18.3498 25.8513 18.2758 25.8552 18.2019C26.0001 15.7292 25.2954 12.9402 23.7528 9.9047C22.4765 7.38268 20.7029 5.41518 18.487 4.04326L16.87 3.04513C16.6586 2.91369 16.3885 3.08621 16.4002 3.34498L16.4863 5.3166C16.5451 6.66387 16.3963 7.85505 16.0439 8.84496C15.6133 10.0567 14.9947 11.1821 14.2038 12.1926C13.6535 12.8948 13.0296 13.53 12.3441 14.0862C10.6932 15.4177 9.35069 17.1238 8.41727 19.0768C7.48616 21.0468 7.00114 23.2158 7 25.4147C7 27.3535 7.36411 29.2306 8.08449 31.001C8.78007 32.7055 9.78388 34.2524 11.0404 35.5562C12.3089 36.8706 13.781 37.9057 15.4214 38.6245C17.1206 39.3721 18.9216 39.75 20.7812 39.75C22.6409 39.75 24.4419 39.3721 26.141 38.6286C27.7774 37.914 29.2655 36.8719 30.5221 35.5603C31.7906 34.2459 32.785 32.7097 33.478 31.0051C34.1973 29.2396 34.5663 27.3389 34.5625 25.4188C34.5625 23.4144 34.171 21.4674 33.3918 19.6313Z" fill="#FF603D"/>
</svg>
