<svg width="30" height="30" viewBox="0 0 30 30" fill="none" xmlns="http://www.w3.org/2000/svg">
<path d="M12.4998 16.249C13.0366 16.9666 13.7215 17.5605 14.508 17.9902C15.2945 18.4199 16.1642 18.6754 17.0581 18.7394C17.9521 18.8034 18.8493 18.6744 19.689 18.3612C20.5287 18.048 21.2912 17.5578 21.9248 16.924L25.6748 13.174C26.8133 11.9952 27.4433 10.4165 27.429 8.77772C27.4148 7.13899 26.7575 5.57141 25.5987 4.41261C24.4399 3.25381 22.8723 2.59651 21.2336 2.58227C19.5948 2.56803 18.0161 3.19799 16.8373 4.33648L14.6873 6.47398M17.4998 13.749C16.9629 13.0313 16.2781 12.4375 15.4916 12.0078C14.7051 11.5781 13.8354 11.3226 12.9414 11.2586C12.0475 11.1946 11.1503 11.3235 10.3106 11.6368C9.47088 11.95 8.70837 12.4402 8.07476 13.074L4.32476 16.824C3.18627 18.0028 2.55631 19.5815 2.57055 21.2203C2.58479 22.859 3.24209 24.4266 4.4009 25.5854C5.5597 26.7442 7.12727 27.4015 8.766 27.4157C10.4047 27.43 11.9835 26.8 13.1623 25.6615L15.2998 23.524" stroke="black" stroke-width="2" stroke-linecap="round" stroke-linejoin="round"/>
</svg>
