<svg width="30" height="30" viewBox="0 0 30 30" fill="none" xmlns="http://www.w3.org/2000/svg">
<path d="M20 11.2485C20.8114 12.3304 21.25 13.6462 21.25 14.9985C21.25 16.3508 20.8114 17.6667 20 18.7485M24.205 22.9535C25.2497 21.9089 26.0784 20.6687 26.6437 19.3037C27.2091 17.9388 27.5001 16.4759 27.5001 14.9985C27.5001 13.5211 27.2091 12.0582 26.6437 10.6933C26.0784 9.32838 25.2497 8.08818 24.205 7.04352M13.75 5.87607C13.7497 5.70196 13.6979 5.53183 13.6011 5.38714C13.5042 5.24245 13.3667 5.1297 13.2058 5.0631C13.0449 4.99651 12.868 4.97906 12.6972 5.01296C12.5264 5.04686 12.3695 5.13058 12.2462 5.25357L8.01625 9.48232C7.85301 9.64654 7.65879 9.77673 7.44487 9.86535C7.23094 9.95397 7.00155 9.99925 6.77 9.99857H3.75C3.41848 9.99857 3.10054 10.1303 2.86612 10.3647C2.6317 10.5991 2.5 10.917 2.5 11.2486V18.7486C2.5 19.0801 2.6317 19.398 2.86612 19.6325C3.10054 19.8669 3.41848 19.9986 3.75 19.9986H6.77C7.00155 19.9979 7.23094 20.0432 7.44487 20.1318C7.65879 20.2204 7.85301 20.3506 8.01625 20.5148L12.245 24.7448C12.3682 24.8683 12.5254 24.9524 12.6965 24.9865C12.8676 25.0207 13.045 25.0032 13.2062 24.9364C13.3673 24.8696 13.5051 24.7565 13.6019 24.6113C13.6987 24.4662 13.7502 24.2955 13.75 24.1211V5.87607Z" stroke="black" stroke-width="2" stroke-linecap="round" stroke-linejoin="round"/>
</svg>
