<svg width="131" height="43" viewBox="0 0 131 43" fill="none" xmlns="http://www.w3.org/2000/svg">
<path d="M94.0441 13.4617C99.3624 13.4619 103.717 17.7781 103.717 23.1346V32.5078C103.717 37.8261 99.3631 42.1795 94.0441 42.1797C90.3064 42.1797 86.991 40.0977 85.3351 36.7482L85.3331 36.7443C84.8151 35.6646 85.2478 34.4031 86.3303 33.8821C87.3739 33.3619 88.6728 33.796 89.1944 34.8391V34.8401L89.1954 34.8411C90.1173 36.7197 91.9568 37.8855 94.0441 37.8855C96.9776 37.8853 99.349 35.5168 99.4218 32.6156V31.1414C97.868 32.1729 96.037 32.8065 94.0441 32.8066C88.6869 32.8066 84.3705 28.4522 84.3702 23.1346C84.3702 17.7788 88.6875 13.4617 94.0441 13.4617ZM118.343 6.16323C122.439 6.16323 125.572 7.33307 127.743 9.6729C129.914 12.0127 131 15.5157 131 20.1823C131 22.9901 130.551 25.4014 129.654 27.4162C128.77 29.418 127.516 30.9587 125.891 32.0376C126.541 32.1156 127.198 32.3236 127.861 32.6616C128.536 32.9865 129.024 33.3509 129.323 33.7538C129.674 34.2217 129.849 34.7028 129.849 35.1966C129.849 35.8075 129.628 36.3403 129.186 36.7952C128.757 37.2501 128.218 37.478 127.568 37.478C126.957 37.478 126.423 37.2502 125.968 36.7952C125.279 36.1194 124.662 35.612 124.116 35.274C123.57 34.9491 122.835 34.6827 121.912 34.4747C120.989 34.2798 119.799 34.1762 118.343 34.1632C114.261 34.1632 111.128 32.9867 108.944 30.634C106.773 28.2811 105.687 24.797 105.687 20.1823C105.687 15.5158 106.773 12.0127 108.944 9.6729C111.115 7.3331 114.248 6.16326 118.343 6.16323ZM21.6977 0C24.0875 0.113373 26.3419 1.14268 27.9931 2.87395C29.6517 4.61303 30.5664 7.30133 30.5664 10.1578C30.5664 13.1631 29.651 15.7033 27.9931 17.4416C26.3799 19.1329 24.1906 20.1539 21.8622 20.3057V35.0869C21.8597 35.2101 21.8396 35.3323 21.8015 35.4494L21.7574 35.5649C21.6914 35.715 21.5962 35.8517 21.4773 35.9656C21.3582 36.0798 21.2176 36.1695 21.0639 36.2291C20.9104 36.2889 20.7466 36.3179 20.582 36.3143C20.4523 36.3118 20.324 36.289 20.2019 36.2467L20.0814 36.1977C19.9259 36.1243 19.7874 36.0188 19.6749 35.8882L3.27165 18.3369C2.24386 17.4608 1.4191 16.3713 0.854154 15.1446C0.565322 14.5174 0.35317 13.5793 0.212559 12.5713C0.0713988 11.5594 1.87893e-05 10.4616 0 9.50638V9.36827C0.00250599 6.97256 0.920118 4.66821 2.5654 2.92685C4.2107 1.18554 6.45945 0.138293 8.85107 0H21.6977ZM58.918 13.499C60.0915 13.499 61.0475 14.4552 61.0475 15.6285V30.678C61.0474 31.8846 60.0953 32.8438 58.918 32.8438C57.7074 32.8437 56.7524 31.8884 56.7523 30.678V15.6285C56.7523 14.4513 57.7113 13.4991 58.918 13.499ZM41.1091 6.14168C42.6357 6.14177 43.4296 7.37759 43.4296 8.31527V24.4805C43.4296 26.1686 43.6815 27.232 44.0781 27.7972C44.4687 28.3136 45.1698 28.6377 46.3437 28.6377H52.6627C53.0985 28.6377 53.5974 28.8203 53.989 29.1588C54.3953 29.5099 54.7031 30.044 54.7031 30.7368C54.7031 31.4296 54.3953 31.9637 53.989 32.3148C53.5974 32.6533 53.0985 32.836 52.6627 32.836H46.3437C43.7585 32.836 41.7688 32.2137 40.5263 30.8367L40.5233 30.8338L40.5214 30.8308C39.325 29.468 38.7886 27.3058 38.7886 24.4805V8.31527C38.7886 7.37755 39.5824 6.14168 41.1091 6.14168ZM72.7148 13.4617C78.0332 13.4617 82.3886 17.778 82.3886 23.1346V30.6408C82.3884 31.8512 81.4326 32.8066 80.2219 32.8066C79.0447 32.8065 78.0936 31.8472 78.0934 30.6408V23.1346C78.0934 20.1627 75.6871 17.757 72.7148 17.757C69.7424 17.757 67.3361 20.1627 67.3361 23.1346V30.6408C67.3359 31.8512 66.381 32.8065 65.1704 32.8066C63.9932 32.8066 63.0411 31.8473 63.0409 30.6408V23.1346C63.0409 17.7781 67.3963 13.4618 72.7148 13.4617ZM118.343 10.3165C113.091 10.3165 110.465 13.6049 110.465 20.1823C110.465 26.7338 113.091 30.0099 118.343 30.01C123.583 30.01 126.202 26.7339 126.202 20.1823C126.202 16.8678 125.553 14.398 124.253 12.7731C122.953 11.1352 120.983 10.3165 118.343 10.3165ZM94.0441 17.757C91.0718 17.757 88.6655 20.1627 88.6655 23.1346C88.6658 26.0703 91.0732 28.5113 94.0441 28.5113C96.9788 28.5111 99.4215 26.0689 99.4218 23.1346C99.4218 20.1641 96.9802 17.7572 94.0441 17.757ZM9.19195 4.57834C7.95411 4.68048 6.79871 5.24202 5.95361 6.15246C5.52422 6.61507 5.19411 7.07142 4.97016 7.59923C4.74646 8.12657 4.62438 8.73486 4.62438 9.50442V9.64254C4.62439 10.4882 4.64607 11.1464 4.68511 11.6467C4.72433 12.1489 4.78051 12.4825 4.84576 12.686C5.27075 14.0038 6.26631 15.0426 7.24366 16.0624C7.28932 16.11 7.33527 16.1578 7.38079 16.2054L17.516 27.0136V18.3006C17.5225 17.6963 17.7656 17.1187 18.1929 16.6913C18.6203 16.2639 19.1979 16.0209 19.8023 16.0144L19.8032 16.0134H21.3617C22.6028 15.9289 23.7642 15.3724 24.6079 14.4579C25.4411 13.5548 25.8979 11.9558 25.8979 10.2303C25.8978 8.51077 25.3748 6.92538 24.5168 6.04471C23.6478 5.15317 22.4694 4.62819 21.2255 4.57834H9.19195ZM58.918 6.06822C59.491 6.06822 60.0503 6.32981 60.4363 6.71569C60.8332 7.11253 61.0475 7.6762 61.0475 8.23397C61.0475 8.79171 60.8332 9.35542 60.4363 9.75225C60.0394 10.1489 59.4758 10.3625 58.918 10.3625C58.3603 10.3624 57.7966 10.149 57.3997 9.75225C57.0137 9.36629 56.7523 8.80694 56.7523 8.23397C56.7523 7.66098 57.0137 7.10166 57.3997 6.71569C57.7857 6.32976 58.345 6.06828 58.918 6.06822Z" fill="#091A2F"/>
</svg>
